<mxfile host="app.diagrams.net" agent="Mozilla/5.0 (Windows NT 10.0; Win64; x64) AppleWebKit/537.36 (KHTML, like Gecko) Chrome/134.0.0.0 Safari/537.36" version="26.2.6">
  <diagram id="C5RBs43oDa-KdzZeNtuy" name="Page-1">
    <mxGraphModel dx="1105" dy="3885" grid="1" gridSize="10" guides="1" tooltips="1" connect="1" arrows="1" fold="1" page="1" pageScale="1" pageWidth="2339" pageHeight="3300" math="0" shadow="0">
      <root>
        <mxCell id="WIyWlLk6GJQsqaUBKTNV-0" />
        <mxCell id="WIyWlLk6GJQsqaUBKTNV-1" parent="WIyWlLk6GJQsqaUBKTNV-0" />
        <mxCell id="WIyWlLk6GJQsqaUBKTNV-9" value="Yes" style="edgeStyle=orthogonalEdgeStyle;rounded=0;html=1;jettySize=auto;orthogonalLoop=1;fontSize=11;endArrow=block;endFill=0;endSize=8;strokeWidth=1;shadow=0;labelBackgroundColor=none;" parent="WIyWlLk6GJQsqaUBKTNV-1" target="WIyWlLk6GJQsqaUBKTNV-12" edge="1">
          <mxGeometry y="10" relative="1" as="geometry">
            <mxPoint as="offset" />
            <mxPoint x="270" y="330" as="sourcePoint" />
          </mxGeometry>
        </mxCell>
        <mxCell id="larwHzMwdpHWX-Lj3IqI-29" value="" style="edgeStyle=orthogonalEdgeStyle;rounded=0;orthogonalLoop=1;jettySize=auto;html=1;" edge="1" parent="WIyWlLk6GJQsqaUBKTNV-1" source="larwHzMwdpHWX-Lj3IqI-21" target="larwHzMwdpHWX-Lj3IqI-28">
          <mxGeometry relative="1" as="geometry" />
        </mxCell>
        <mxCell id="larwHzMwdpHWX-Lj3IqI-21" value="start" style="strokeWidth=2;html=1;shape=mxgraph.flowchart.start_1;whiteSpace=wrap;" vertex="1" parent="WIyWlLk6GJQsqaUBKTNV-1">
          <mxGeometry x="140" y="-1820" width="100" height="60" as="geometry" />
        </mxCell>
        <mxCell id="larwHzMwdpHWX-Lj3IqI-25" value="" style="edgeStyle=orthogonalEdgeStyle;rounded=0;orthogonalLoop=1;jettySize=auto;html=1;" edge="1" parent="WIyWlLk6GJQsqaUBKTNV-1" target="larwHzMwdpHWX-Lj3IqI-24">
          <mxGeometry relative="1" as="geometry">
            <mxPoint x="190" y="-1620" as="sourcePoint" />
          </mxGeometry>
        </mxCell>
        <mxCell id="larwHzMwdpHWX-Lj3IqI-27" value="" style="edgeStyle=orthogonalEdgeStyle;rounded=0;orthogonalLoop=1;jettySize=auto;html=1;" edge="1" parent="WIyWlLk6GJQsqaUBKTNV-1" source="larwHzMwdpHWX-Lj3IqI-24" target="larwHzMwdpHWX-Lj3IqI-26">
          <mxGeometry relative="1" as="geometry" />
        </mxCell>
        <mxCell id="larwHzMwdpHWX-Lj3IqI-24" value="inisialisasi : low = 0, high = panjang array -1" style="whiteSpace=wrap;html=1;rounded=1;strokeWidth=2;" vertex="1" parent="WIyWlLk6GJQsqaUBKTNV-1">
          <mxGeometry x="130" y="-1540" width="120" height="60" as="geometry" />
        </mxCell>
        <mxCell id="larwHzMwdpHWX-Lj3IqI-31" value="" style="edgeStyle=orthogonalEdgeStyle;rounded=0;orthogonalLoop=1;jettySize=auto;html=1;" edge="1" parent="WIyWlLk6GJQsqaUBKTNV-1" source="larwHzMwdpHWX-Lj3IqI-26" target="larwHzMwdpHWX-Lj3IqI-30">
          <mxGeometry relative="1" as="geometry" />
        </mxCell>
        <mxCell id="larwHzMwdpHWX-Lj3IqI-54" value="" style="edgeStyle=orthogonalEdgeStyle;rounded=0;orthogonalLoop=1;jettySize=auto;html=1;" edge="1" parent="WIyWlLk6GJQsqaUBKTNV-1" source="larwHzMwdpHWX-Lj3IqI-26" target="larwHzMwdpHWX-Lj3IqI-53">
          <mxGeometry relative="1" as="geometry" />
        </mxCell>
        <mxCell id="larwHzMwdpHWX-Lj3IqI-26" value="apakah&lt;div&gt;low &amp;lt;= high?&lt;/div&gt;" style="rhombus;whiteSpace=wrap;html=1;rounded=1;strokeWidth=2;" vertex="1" parent="WIyWlLk6GJQsqaUBKTNV-1">
          <mxGeometry x="110" y="-1410" width="160" height="160" as="geometry" />
        </mxCell>
        <mxCell id="larwHzMwdpHWX-Lj3IqI-28" value="input: Array (terurut)&amp;nbsp;&lt;div&gt;dan bilangan yang&amp;nbsp;&lt;/div&gt;&lt;div&gt;dicari&lt;/div&gt;" style="shape=parallelogram;perimeter=parallelogramPerimeter;whiteSpace=wrap;html=1;fixedSize=1;strokeWidth=2;" vertex="1" parent="WIyWlLk6GJQsqaUBKTNV-1">
          <mxGeometry x="110" y="-1680" width="160" height="60" as="geometry" />
        </mxCell>
        <mxCell id="larwHzMwdpHWX-Lj3IqI-34" value="" style="edgeStyle=orthogonalEdgeStyle;rounded=0;orthogonalLoop=1;jettySize=auto;html=1;" edge="1" parent="WIyWlLk6GJQsqaUBKTNV-1" source="larwHzMwdpHWX-Lj3IqI-30">
          <mxGeometry relative="1" as="geometry">
            <mxPoint x="590" y="-1330" as="targetPoint" />
          </mxGeometry>
        </mxCell>
        <mxCell id="larwHzMwdpHWX-Lj3IqI-30" value="output: bilangan&amp;nbsp;&lt;div&gt;&lt;span style=&quot;background-color: transparent; color: light-dark(rgb(0, 0, 0), rgb(255, 255, 255));&quot;&gt;t&lt;/span&gt;&lt;span style=&quot;background-color: transparent; color: light-dark(rgb(0, 0, 0), rgb(255, 255, 255));&quot;&gt;idak ditemukan&lt;/span&gt;&lt;/div&gt;" style="shape=parallelogram;perimeter=parallelogramPerimeter;whiteSpace=wrap;html=1;fixedSize=1;rounded=1;strokeWidth=2;" vertex="1" parent="WIyWlLk6GJQsqaUBKTNV-1">
          <mxGeometry x="370" y="-1360" width="120" height="60" as="geometry" />
        </mxCell>
        <mxCell id="larwHzMwdpHWX-Lj3IqI-32" value="tidak" style="text;html=1;align=center;verticalAlign=middle;resizable=0;points=[];autosize=1;strokeColor=none;fillColor=none;" vertex="1" parent="WIyWlLk6GJQsqaUBKTNV-1">
          <mxGeometry x="285" y="-1362" width="50" height="30" as="geometry" />
        </mxCell>
        <mxCell id="larwHzMwdpHWX-Lj3IqI-35" value="selesai" style="strokeWidth=2;html=1;shape=mxgraph.flowchart.start_1;whiteSpace=wrap;" vertex="1" parent="WIyWlLk6GJQsqaUBKTNV-1">
          <mxGeometry x="590" y="-1360" width="100" height="60" as="geometry" />
        </mxCell>
        <mxCell id="larwHzMwdpHWX-Lj3IqI-40" value="" style="edgeStyle=orthogonalEdgeStyle;rounded=0;orthogonalLoop=1;jettySize=auto;html=1;" edge="1" parent="WIyWlLk6GJQsqaUBKTNV-1" source="larwHzMwdpHWX-Lj3IqI-36">
          <mxGeometry relative="1" as="geometry">
            <mxPoint x="370" y="-907" as="targetPoint" />
          </mxGeometry>
        </mxCell>
        <mxCell id="larwHzMwdpHWX-Lj3IqI-47" value="" style="edgeStyle=orthogonalEdgeStyle;rounded=0;orthogonalLoop=1;jettySize=auto;html=1;" edge="1" parent="WIyWlLk6GJQsqaUBKTNV-1" source="larwHzMwdpHWX-Lj3IqI-36" target="larwHzMwdpHWX-Lj3IqI-46">
          <mxGeometry relative="1" as="geometry" />
        </mxCell>
        <mxCell id="larwHzMwdpHWX-Lj3IqI-36" value="Apakah array[mid] =&amp;nbsp;&lt;div&gt;bilangan yang dicari?&lt;/div&gt;" style="rhombus;whiteSpace=wrap;html=1;rounded=1;strokeWidth=2;" vertex="1" parent="WIyWlLk6GJQsqaUBKTNV-1">
          <mxGeometry x="110" y="-987" width="160" height="160" as="geometry" />
        </mxCell>
        <mxCell id="larwHzMwdpHWX-Lj3IqI-41" value="Tidak" style="text;html=1;align=center;verticalAlign=middle;resizable=0;points=[];autosize=1;strokeColor=none;fillColor=none;" vertex="1" parent="WIyWlLk6GJQsqaUBKTNV-1">
          <mxGeometry x="285" y="-939" width="50" height="30" as="geometry" />
        </mxCell>
        <mxCell id="larwHzMwdpHWX-Lj3IqI-58" value="" style="edgeStyle=orthogonalEdgeStyle;rounded=0;orthogonalLoop=1;jettySize=auto;html=1;" edge="1" parent="WIyWlLk6GJQsqaUBKTNV-1" source="larwHzMwdpHWX-Lj3IqI-43" target="larwHzMwdpHWX-Lj3IqI-57">
          <mxGeometry relative="1" as="geometry" />
        </mxCell>
        <mxCell id="larwHzMwdpHWX-Lj3IqI-64" value="" style="edgeStyle=orthogonalEdgeStyle;rounded=0;orthogonalLoop=1;jettySize=auto;html=1;" edge="1" parent="WIyWlLk6GJQsqaUBKTNV-1" source="larwHzMwdpHWX-Lj3IqI-43" target="larwHzMwdpHWX-Lj3IqI-63">
          <mxGeometry relative="1" as="geometry" />
        </mxCell>
        <mxCell id="larwHzMwdpHWX-Lj3IqI-43" value="Apakah array[mid] &amp;lt;&amp;nbsp;&lt;div&gt;bilangan yang dicari?&lt;/div&gt;" style="rhombus;whiteSpace=wrap;html=1;rounded=1;strokeWidth=2;" vertex="1" parent="WIyWlLk6GJQsqaUBKTNV-1">
          <mxGeometry x="370" y="-987" width="160" height="160" as="geometry" />
        </mxCell>
        <mxCell id="larwHzMwdpHWX-Lj3IqI-56" value="" style="edgeStyle=orthogonalEdgeStyle;rounded=0;orthogonalLoop=1;jettySize=auto;html=1;" edge="1" parent="WIyWlLk6GJQsqaUBKTNV-1" source="larwHzMwdpHWX-Lj3IqI-46" target="larwHzMwdpHWX-Lj3IqI-51">
          <mxGeometry relative="1" as="geometry" />
        </mxCell>
        <mxCell id="larwHzMwdpHWX-Lj3IqI-46" value="output:&amp;nbsp;&lt;div&gt;&#39;bilangan ditemukan&amp;nbsp;&lt;/div&gt;&lt;div&gt;di indeks mid&#39;&lt;/div&gt;" style="shape=parallelogram;perimeter=parallelogramPerimeter;whiteSpace=wrap;html=1;fixedSize=1;rounded=1;strokeWidth=2;" vertex="1" parent="WIyWlLk6GJQsqaUBKTNV-1">
          <mxGeometry x="110" y="-737" width="160" height="100" as="geometry" />
        </mxCell>
        <mxCell id="larwHzMwdpHWX-Lj3IqI-48" value="Ya" style="text;html=1;align=center;verticalAlign=middle;resizable=0;points=[];autosize=1;strokeColor=none;fillColor=none;" vertex="1" parent="WIyWlLk6GJQsqaUBKTNV-1">
          <mxGeometry x="190" y="-799" width="40" height="30" as="geometry" />
        </mxCell>
        <mxCell id="larwHzMwdpHWX-Lj3IqI-51" value="Selesai" style="strokeWidth=2;html=1;shape=mxgraph.flowchart.start_1;whiteSpace=wrap;" vertex="1" parent="WIyWlLk6GJQsqaUBKTNV-1">
          <mxGeometry x="140" y="-560" width="100" height="60" as="geometry" />
        </mxCell>
        <mxCell id="larwHzMwdpHWX-Lj3IqI-55" value="" style="edgeStyle=orthogonalEdgeStyle;rounded=0;orthogonalLoop=1;jettySize=auto;html=1;" edge="1" parent="WIyWlLk6GJQsqaUBKTNV-1" source="larwHzMwdpHWX-Lj3IqI-53" target="larwHzMwdpHWX-Lj3IqI-36">
          <mxGeometry relative="1" as="geometry" />
        </mxCell>
        <mxCell id="larwHzMwdpHWX-Lj3IqI-53" value="hitung: mid = (low + high) / 2" style="whiteSpace=wrap;html=1;rounded=1;strokeWidth=2;" vertex="1" parent="WIyWlLk6GJQsqaUBKTNV-1">
          <mxGeometry x="130" y="-1160" width="120" height="60" as="geometry" />
        </mxCell>
        <mxCell id="larwHzMwdpHWX-Lj3IqI-57" value="low = mid + 1" style="rounded=1;whiteSpace=wrap;html=1;strokeWidth=2;" vertex="1" parent="WIyWlLk6GJQsqaUBKTNV-1">
          <mxGeometry x="580" y="-1020" width="120" height="60" as="geometry" />
        </mxCell>
        <mxCell id="larwHzMwdpHWX-Lj3IqI-59" value="" style="endArrow=classic;html=1;rounded=0;exitX=0.5;exitY=0;exitDx=0;exitDy=0;entryX=1;entryY=1;entryDx=0;entryDy=0;" edge="1" parent="WIyWlLk6GJQsqaUBKTNV-1" source="larwHzMwdpHWX-Lj3IqI-57" target="larwHzMwdpHWX-Lj3IqI-26">
          <mxGeometry width="50" height="50" relative="1" as="geometry">
            <mxPoint x="340" y="-1120" as="sourcePoint" />
            <mxPoint x="390" y="-1170" as="targetPoint" />
            <Array as="points">
              <mxPoint x="640" y="-1120" />
              <mxPoint x="320" y="-1120" />
              <mxPoint x="320" y="-1240" />
              <mxPoint x="230" y="-1240" />
            </Array>
          </mxGeometry>
        </mxCell>
        <mxCell id="larwHzMwdpHWX-Lj3IqI-60" value="ya" style="text;html=1;align=center;verticalAlign=middle;resizable=0;points=[];autosize=1;strokeColor=none;fillColor=none;" vertex="1" parent="WIyWlLk6GJQsqaUBKTNV-1">
          <mxGeometry x="520" y="-969" width="40" height="30" as="geometry" />
        </mxCell>
        <mxCell id="larwHzMwdpHWX-Lj3IqI-63" value="high = mid - 1" style="whiteSpace=wrap;html=1;rounded=1;strokeWidth=2;" vertex="1" parent="WIyWlLk6GJQsqaUBKTNV-1">
          <mxGeometry x="580" y="-870" width="120" height="60" as="geometry" />
        </mxCell>
        <mxCell id="larwHzMwdpHWX-Lj3IqI-65" value="tidak" style="text;html=1;align=center;verticalAlign=middle;resizable=0;points=[];autosize=1;strokeColor=none;fillColor=none;" vertex="1" parent="WIyWlLk6GJQsqaUBKTNV-1">
          <mxGeometry x="510" y="-880" width="50" height="30" as="geometry" />
        </mxCell>
        <mxCell id="larwHzMwdpHWX-Lj3IqI-66" value="" style="endArrow=classic;html=1;rounded=0;exitX=1;exitY=0.5;exitDx=0;exitDy=0;entryX=1;entryY=1;entryDx=0;entryDy=0;" edge="1" parent="WIyWlLk6GJQsqaUBKTNV-1" source="larwHzMwdpHWX-Lj3IqI-63" target="larwHzMwdpHWX-Lj3IqI-26">
          <mxGeometry width="50" height="50" relative="1" as="geometry">
            <mxPoint x="340" y="-930" as="sourcePoint" />
            <mxPoint x="390" y="-980" as="targetPoint" />
            <Array as="points">
              <mxPoint x="730" y="-840" />
              <mxPoint x="730" y="-1290" />
            </Array>
          </mxGeometry>
        </mxCell>
        <mxCell id="larwHzMwdpHWX-Lj3IqI-67" value="kembali ke" style="text;html=1;align=center;verticalAlign=middle;resizable=0;points=[];autosize=1;strokeColor=none;fillColor=none;" vertex="1" parent="WIyWlLk6GJQsqaUBKTNV-1">
          <mxGeometry x="390" y="-1152" width="80" height="30" as="geometry" />
        </mxCell>
        <mxCell id="larwHzMwdpHWX-Lj3IqI-68" value="kembali ke" style="text;html=1;align=center;verticalAlign=middle;resizable=0;points=[];autosize=1;strokeColor=none;fillColor=none;" vertex="1" parent="WIyWlLk6GJQsqaUBKTNV-1">
          <mxGeometry x="730" y="-1122" width="80" height="30" as="geometry" />
        </mxCell>
      </root>
    </mxGraphModel>
  </diagram>
</mxfile>
